<svg width="1200" height="700" viewBox="0 0 1200 700" fill="none" xmlns="http://www.w3.org/2000/svg">
  <rect width="1200" height="700" fill="#08111F"/>
  <g opacity="0.22">
    <path d="M0 80H1200M0 160H1200M0 240H1200M0 320H1200M0 400H1200M0 480H1200M0 560H1200M0 640H1200" stroke="#2DD4BF"/>
    <path d="M80 0V700M160 0V700M240 0V700M320 0V700M400 0V700M480 0V700M560 0V700M640 0V700M720 0V700M800 0V700M880 0V700M960 0V700M1040 0V700M1120 0V700" stroke="#2563EB"/>
  </g>
  <g opacity="0.35">
    <circle cx="210" cy="190" r="4" fill="#2DD4BF"/>
    <circle cx="400" cy="320" r="4" fill="#2DD4BF"/>
    <circle cx="680" cy="240" r="4" fill="#60A5FA"/>
    <circle cx="920" cy="430" r="4" fill="#2DD4BF"/>
    <circle cx="1040" cy="160" r="4" fill="#60A5FA"/>
    <path d="M210 190L400 320L680 240L920 430L1040 160" stroke="#2DD4BF" stroke-width="2"/>
  </g>
  <rect x="98" y="103" width="330" height="150" rx="12" fill="#111827" stroke="#334155"/>
  <rect x="780" y="336" width="300" height="130" rx="12" fill="#111827" stroke="#334155"/>
  <path d="M130 145H390M130 178H320M130 211H360" stroke="#94A3B8" stroke-width="8" stroke-linecap="round"/>
  <path d="M812 378H1038M812 411H982" stroke="#94A3B8" stroke-width="8" stroke-linecap="round"/>
</svg>

